<svg version="1.2" baseProfile="tiny-ps" xmlns="http://www.w3.org/2000/svg" viewBox="0 0 38 38" width="38" height="38">
	<title>logo-svg</title>
	<style>
		tspan { white-space:pre }
		.shp0 { fill: #922eb6 } 
	</style>
	<g id="Pasta 1">
		<path id="Layer" class="shp0" d="M8.6 25.28C6.79 25.28 5.13 24.97 3.65 24.36C2.16 23.72 0.94 22.81 0 21.63L3.82 17.1C5.15 18.82 6.57 19.68 8.11 19.68C9.12 19.68 9.89 19.38 10.41 18.76C10.95 18.15 11.22 17.25 11.22 16.07L11.22 5.42L2.66 5.42L2.66 0L18.16 0L18.16 15.65C18.16 18.86 17.35 21.27 15.72 22.87C14.11 24.47 11.74 25.28 8.6 25.28Z" />
		<path id="Layer" class="shp0" d="M30.85 24.58L37.05 24.58L37.05 34.85C35.63 35.86 34 36.64 32.16 37.19C30.32 37.73 28.48 38 26.64 38C24.04 38 21.71 37.46 19.63 36.37C17.55 35.26 15.93 33.73 14.75 31.77C13.56 29.81 12.97 27.59 12.97 25.11C12.97 22.64 13.56 20.42 14.75 18.46C15.93 16.5 17.57 14.98 19.67 13.89C21.77 12.78 24.14 12.23 26.78 12.23C29.09 12.23 31.17 12.62 33.01 13.4C34.85 14.17 36.39 15.3 37.62 16.76L33.15 20.79C31.48 18.95 29.47 18.03 27.14 18.03C25.01 18.03 23.3 18.68 22 19.98C20.7 21.25 20.06 22.97 20.06 25.11C20.06 26.48 20.35 27.71 20.94 28.8C21.53 29.86 22.36 30.7 23.42 31.31C24.48 31.9 25.7 32.19 27.07 32.19C28.41 32.19 29.67 31.92 30.85 31.38L30.85 24.58Z" />
	</g>
</svg>