<svg width="424" height="704" viewBox="0 0 424 704" fill="none" xmlns="http://www.w3.org/2000/svg">
<g opacity="0.4">
<path d="M171 130.5C171 58.4268 229.427 0 301.5 0H330.5C402.573 0 461 58.4268 461 130.5C461 202.573 402.573 261 330.5 261H301.5C229.427 261 171 202.573 171 130.5Z" fill="#28AB8D"/>
<path d="M171 573.5C171 501.427 229.427 443 301.5 443H330.5C402.573 443 461 501.427 461 573.5C461 645.573 402.573 704 330.5 704H301.5C229.427 704 171 645.573 171 573.5Z" fill="#28AB8D"/>
<path d="M339 352.5C339 280.427 397.427 222 469.5 222H498.5C570.573 222 629 280.427 629 352.5C629 424.573 570.573 483 498.5 483H469.5C397.427 483 339 424.573 339 352.5Z" fill="#28AB8D"/>
<path d="M0 352.5C0 280.427 58.4268 222 130.5 222H159.5C231.573 222 290 280.427 290 352.5C290 424.573 231.573 483 159.5 483H130.5C58.4268 483 0 424.573 0 352.5Z" fill="#28AB8D"/>
</g>
</svg>
