<svg width="376" height="680" viewBox="0 0 376 680" fill="none" xmlns="http://www.w3.org/2000/svg">
<g opacity="0.6">
<path d="M-82 106.5C-82 34.4268 -23.5732 -24 48.5 -24H77.5C149.573 -24 208 34.4268 208 106.5C208 178.573 149.573 237 77.5 237H48.5C-23.5732 237 -82 178.573 -82 106.5Z" fill="#74009E"/>
<path d="M-82 549.5C-82 477.427 -23.5732 419 48.5 419H77.5C149.573 419 208 477.427 208 549.5C208 621.573 149.573 680 77.5 680H48.5C-23.5732 680 -82 621.573 -82 549.5Z" fill="#74009E"/>
<path d="M86 328.5C86 256.427 144.427 198 216.5 198H245.5C317.573 198 376 256.427 376 328.5C376 400.573 317.573 459 245.5 459H216.5C144.427 459 86 400.573 86 328.5Z" fill="#74009E"/>
<path d="M-253 328.5C-253 256.427 -194.573 198 -122.5 198H-93.5C-21.4268 198 37 256.427 37 328.5C37 400.573 -21.4268 459 -93.5 459H-122.5C-194.573 459 -253 400.573 -253 328.5Z" fill="#74009E"/>
</g>
</svg>
