<svg width="245" height="245" viewBox="0 0 245 245" fill="none" xmlns="http://www.w3.org/2000/svg">
<path d="M192.393 4.97951C191.428 5.14364 190.523 5.67336 189.911 6.53468L185.477 12.7853C184.252 14.5118 184.659 16.8987 186.382 18.1237C187.056 18.6022 187.829 18.834 188.595 18.834C189.793 18.834 190.97 18.2679 191.72 17.219L196.154 10.9759C197.379 9.24942 196.979 6.86247 195.257 5.63747C194.392 5.02305 193.359 4.81538 192.393 4.97951ZM78.7682 19.821C73.8402 19.6697 69.1877 20.6633 65.0781 23.036C58.5027 26.8323 54.282 33.6116 52.1582 41.9C50.0344 50.1883 49.853 60.1355 51.3208 71.2539C51.8019 74.8983 52.5259 78.7114 53.362 82.5888C49.5899 83.8024 45.929 85.0725 42.5356 86.4767C32.1728 90.7647 23.6491 95.8955 17.5331 101.879C11.4171 107.862 7.65625 114.907 7.65625 122.5C7.65625 130.093 11.4171 137.138 17.5331 143.121C23.6491 149.104 32.1728 154.235 42.5356 158.523C45.929 159.927 49.5899 161.197 53.362 162.411C52.5259 166.289 51.8019 170.094 51.3208 173.738C49.853 184.857 50.0344 194.804 52.1582 203.092C54.282 211.381 58.5028 218.16 65.0781 221.956C71.6535 225.753 79.6351 226.018 87.8749 223.713C96.1147 221.409 104.82 216.592 113.715 209.762C116.629 207.524 119.561 204.991 122.5 202.33C125.437 204.99 128.372 207.525 131.285 209.762C140.18 216.592 148.885 221.409 157.125 223.713C165.365 226.018 173.346 225.753 179.922 221.956C186.497 218.16 190.718 211.381 192.842 203.092C194.966 194.804 195.147 184.857 193.679 173.738C193.199 170.099 192.473 166.29 191.638 162.419C195.411 161.205 199.07 159.928 202.464 158.523C212.827 154.235 221.351 149.104 227.467 143.121C233.583 137.138 237.344 130.093 237.344 122.5C237.344 114.907 233.583 107.862 227.467 101.879C221.351 95.8955 212.827 90.7647 202.464 86.4767C199.07 85.0723 195.411 83.7951 191.638 82.5813C192.473 78.7086 193.199 74.9015 193.679 71.2614C195.147 60.143 194.966 50.1958 192.842 41.9075C190.718 33.6191 186.497 26.8398 179.922 23.0435C173.346 19.2472 165.365 18.9815 157.125 21.2864C148.885 23.5913 140.18 28.4078 131.285 35.2381C128.372 37.4752 125.437 40.0098 122.5 42.6701C119.561 40.0085 116.629 37.4687 113.715 35.2307C104.82 28.4003 96.1147 23.5839 87.8749 21.2789C84.785 20.4146 81.7249 19.9117 78.7682 19.821ZM206.345 20.7107C205.85 20.7517 205.354 20.8919 204.887 21.1369L198.105 24.6884C196.234 25.6722 195.507 27.9942 196.49 29.8623C197.176 31.1715 198.507 31.911 199.885 31.911C200.482 31.911 201.09 31.7721 201.657 31.4773L208.438 27.9184C210.31 26.9345 211.037 24.62 210.053 22.7519C209.316 21.345 207.831 20.5876 206.345 20.7107ZM78.5887 27.4548C80.8156 27.5332 83.2249 27.9351 85.8113 28.6586C92.7084 30.5879 100.692 34.8979 109.042 41.3093C111.633 43.2991 114.272 45.5562 116.915 47.9338C109.341 55.4537 101.828 64.3129 94.6265 74.2222C82.4443 75.5039 71.0185 77.5841 60.7191 80.3831C59.9811 76.9049 59.3449 73.4917 58.9172 70.252C57.5394 59.8156 57.7975 50.7442 59.5752 43.8066C61.3529 36.8689 64.4958 32.2143 68.9062 29.6679C71.6628 28.0765 74.8772 27.3241 78.5887 27.4548ZM166.404 27.4623C170.115 27.3316 173.337 28.0839 176.094 29.6754C180.504 32.2218 183.647 36.8689 185.425 43.8066C187.202 50.7442 187.453 59.8231 186.075 70.2595C185.648 73.4988 185.019 76.9053 184.281 80.3831C173.981 77.5841 162.556 75.5039 150.374 74.2222C143.173 64.3129 135.659 55.4616 128.085 47.9412C130.728 45.5638 133.36 43.3065 135.951 41.3168C144.3 34.9054 152.284 30.5879 159.181 28.6586C161.768 27.9351 164.177 27.5407 166.404 27.4623ZM212.162 40.2326L204.588 41.3691C202.498 41.683 201.059 43.6379 201.373 45.7281C201.66 47.6307 203.292 48.988 205.156 48.988C205.344 48.988 205.529 48.9699 205.724 48.9431L213.298 47.8067C215.388 47.4927 216.835 45.5453 216.521 43.4551C216.207 41.3688 214.26 39.957 212.162 40.2326ZM122.5 53.1974C128.428 59.0735 134.378 65.8392 140.183 73.3624C134.405 72.9863 128.531 72.7343 122.5 72.7343C116.467 72.7343 110.59 72.9859 104.81 73.3624C110.615 65.8375 116.571 59.0744 122.5 53.1974ZM206.076 59.7396C203.974 59.621 202.149 61.2267 202.031 63.336C201.904 65.4491 203.521 67.2623 205.635 67.3809L213.276 67.8221C213.352 67.8259 213.424 67.8295 213.5 67.8295C215.51 67.8295 217.195 66.251 217.313 64.2182C217.44 62.1051 215.83 60.2994 213.717 60.1808L206.076 59.7396ZM122.5 80.3906C130.642 80.3906 138.552 80.7899 146.179 81.4897C150.598 87.7437 154.894 94.3951 158.964 101.445C163.036 108.498 166.65 115.544 169.858 122.5C166.65 129.456 163.036 136.502 158.964 143.555C154.894 150.605 150.598 157.256 146.179 163.51C138.552 164.21 130.642 164.609 122.5 164.609C114.358 164.609 106.448 164.21 98.821 163.51C94.4004 157.254 90.1003 150.608 86.0281 143.555C81.9561 136.502 78.3497 129.449 75.1419 122.492C78.3481 115.541 81.959 108.493 86.0281 101.445C90.1003 94.3922 94.4004 87.746 98.821 81.4897C106.448 80.7899 114.358 80.3906 122.5 80.3906ZM88.7871 82.6112C85.5713 87.4283 82.4128 92.3922 79.3962 97.6171C76.3818 102.838 73.6667 108.054 71.1044 113.244C67.4911 104.455 64.6087 95.9244 62.4837 87.8524C70.5375 85.6564 79.3682 83.8763 88.7871 82.6112ZM156.205 82.6112C165.627 83.8764 174.46 85.6559 182.516 87.8524C180.391 95.9246 177.509 104.462 173.896 113.251C171.332 108.057 168.613 102.842 165.596 97.6171C162.581 92.394 159.42 87.4267 156.205 82.6112ZM55.134 90.0581C57.86 100.377 61.7715 111.309 66.7529 122.5C61.7714 133.691 57.86 144.622 55.134 154.942C51.754 153.842 48.4849 152.692 45.4665 151.443C35.7394 147.418 28.0059 142.656 22.8865 137.648C17.7671 132.64 15.3125 127.593 15.3125 122.5C15.3125 117.407 17.7671 112.36 22.8865 107.352C28.0059 102.344 35.7394 97.5822 45.4665 93.5572C48.4849 92.3082 51.754 91.1577 55.134 90.0581ZM189.859 90.0581C193.241 91.1583 196.513 92.3074 199.534 93.5572C209.261 97.5822 216.994 102.344 222.113 107.352C227.233 112.36 229.688 117.407 229.688 122.5C229.688 127.593 227.233 132.64 222.113 137.648C216.994 142.656 209.261 147.418 199.534 151.443C196.515 152.692 193.246 153.842 189.866 154.942C187.14 144.622 183.221 133.692 178.24 122.5C183.22 111.311 187.133 100.376 189.859 90.0581ZM122.5 95.7031C107.746 95.7031 95.7031 107.746 95.7031 122.5C95.7031 137.254 107.746 149.297 122.5 149.297C137.254 149.297 149.297 137.254 149.297 122.5C149.297 107.746 137.254 95.7031 122.5 95.7031ZM122.5 103.359C133.116 103.359 141.641 111.884 141.641 122.5C141.641 133.116 133.116 141.641 122.5 141.641C111.884 141.641 103.359 133.116 103.359 122.5C103.359 111.884 111.884 103.359 122.5 103.359ZM173.896 131.749C177.509 140.538 180.391 149.075 182.516 157.147C174.46 159.344 165.627 161.124 156.205 162.389C159.42 157.573 162.581 152.606 165.596 147.383C168.613 142.158 171.332 136.943 173.896 131.749ZM71.1044 131.756C73.6664 136.945 76.3823 142.163 79.3962 147.383C82.4128 152.608 85.5713 157.572 88.7871 162.389C79.3682 161.124 70.5375 159.343 62.4837 157.147C64.6087 149.076 67.4911 140.545 71.1044 131.756ZM60.7191 164.617C71.0185 167.416 82.4443 169.496 94.6265 170.778C101.828 180.687 109.341 189.546 116.915 197.066C114.272 199.444 111.633 201.693 109.042 203.683C100.692 210.095 92.7084 214.412 85.8113 216.341C78.9143 218.271 73.3167 217.878 68.9062 215.332C64.4958 212.786 61.3454 208.131 59.5677 201.193C57.79 194.256 57.5394 185.177 58.9172 174.74C59.3449 171.501 59.9811 168.095 60.7191 164.617ZM184.281 164.617C185.019 168.095 185.648 171.501 186.075 174.74C187.453 185.177 187.202 194.256 185.425 201.193C183.647 208.131 180.504 212.778 176.094 215.324C171.683 217.871 166.086 218.271 159.189 216.341C152.292 214.412 144.3 210.095 135.951 203.683C133.36 201.693 130.728 199.436 128.085 197.059C135.659 189.538 143.173 180.687 150.374 170.778C162.556 169.496 173.981 167.416 184.281 164.617ZM32.9652 167.353C30.8559 167.07 28.9417 168.545 28.6661 170.643C28.3828 172.741 29.8581 174.663 31.9559 174.942L39.5448 175.952C39.7171 175.975 39.8848 175.989 40.0533 175.989C41.9443 175.989 43.5913 174.584 43.844 172.662C44.1273 170.564 42.652 168.642 40.5542 168.363L32.9652 167.353ZM104.81 171.638C110.59 172.014 116.467 172.266 122.5 172.266C128.531 172.266 134.405 172.014 140.183 171.638C134.378 179.161 128.428 185.926 122.5 191.802C116.571 185.926 110.615 179.162 104.81 171.638ZM38.8943 186.883L31.2456 187.144C29.1286 187.213 27.4718 188.979 27.5446 191.092C27.6135 193.163 29.3133 194.793 31.3652 194.793C31.4111 194.793 31.4615 194.797 31.4998 194.793L39.1486 194.531C41.2655 194.463 42.9223 192.697 42.8496 190.584C42.7807 188.467 41.0036 186.741 38.8943 186.883ZM42.2066 204.849C41.7114 204.799 41.2035 204.848 40.6963 205.007L33.369 207.242C31.3477 207.858 30.2105 209.998 30.8269 212.02C31.3284 213.67 32.8482 214.734 34.4905 214.734C34.858 214.734 35.2294 214.677 35.6046 214.562L42.9318 212.326C44.9531 211.71 46.0941 209.57 45.4739 207.549C45.0146 206.033 43.692 205.001 42.2066 204.849ZM50.3189 220.319C49.3423 220.246 48.3376 220.538 47.5375 221.224L41.7281 226.218C40.1241 227.592 39.9425 230.012 41.3168 231.616C42.0748 232.501 43.1496 232.947 44.2253 232.947C45.1096 232.947 45.9954 232.64 46.7151 232.02L52.5246 227.033C54.1286 225.659 54.3101 223.239 52.9358 221.635C52.2448 220.833 51.2956 220.392 50.3189 220.319Z" fill="white"/>
</svg>
