<svg width="38" height="38" viewBox="0 0 38 38" fill="none" xmlns="http://www.w3.org/2000/svg">
<path d="M8.60277 25.2773C6.78545 25.2773 5.13334 24.9705 3.64644 24.3568C2.15954 23.7196 0.944063 22.8109 0 21.6308L3.82345 17.0993C5.14514 18.8223 6.57304 19.6837 8.10714 19.6837C9.122 19.6837 9.88906 19.3769 10.4083 18.7632C10.9511 18.1496 11.2225 17.2527 11.2225 16.0727V5.41656H2.65518V0H18.1614V15.6478C18.1614 18.8577 17.3472 21.265 15.7186 22.8699C14.1137 24.4748 11.7418 25.2773 8.60277 25.2773Z" fill="white"/>
<path d="M30.8532 24.5825H37.0486V34.8492C35.6325 35.864 34.004 36.6429 32.163 37.1857C30.3221 37.7286 28.4812 38 26.6403 38C24.0441 38 21.7076 37.4572 19.6306 36.3715C17.5537 35.2622 15.9252 33.7281 14.7451 31.7692C13.565 29.8102 12.975 27.5917 12.975 25.1135C12.975 22.6354 13.565 20.4168 14.7451 18.4579C15.9252 16.499 17.5655 14.9767 19.666 13.891C21.7666 12.7817 24.1385 12.2271 26.7819 12.2271C29.0948 12.2271 31.1718 12.6165 33.0127 13.3954C34.8536 14.1742 36.3877 15.2953 37.615 16.7586L33.1543 20.7944C31.4786 18.9535 29.4725 18.0331 27.1359 18.0331C25.0118 18.0331 23.3007 18.6821 22.0026 19.9802C20.7045 21.2547 20.0554 22.9658 20.0554 25.1135C20.0554 26.4824 20.3505 27.7097 20.9405 28.7954C21.5305 29.8575 22.3566 30.6953 23.4187 31.3089C24.4807 31.899 25.6962 32.194 27.0651 32.194C28.4104 32.194 29.6731 31.9226 30.8532 31.3798V24.5825Z" fill="white"/>
</svg>
